# xmcd
#
# Track frame offsets: 
#        150
#        18253
#        32691
#        48583
#        65569
#        83759
#        101579
#        120903
#        135508
#        153848
#        179765
#
# Disc length: 2452 seconds
#
# Revision: 3
# Processed by: cddbd v1.5.2PL0 Copyright (c) Steve Scherf et al.
# Submitted via: ExactAudioCopy v1.0b3
#
DISCID=8609920b
DTITLE=Das Gezeichnete Ich - Das Gezeichnete Ich
DYEAR=2010
DGENRE=Pop
TTITLE0=Innen
TTITLE1=Halleluja
TTITLE2=Du, es und ich
TTITLE3=Unsichtbar
TTITLE4=Beste Zeit
TTITLE5=Durch die Blume
TTITLE6=Nebel
TTITLE7=High
TTITLE8=Vergangenheit
TTITLE9=Lichtjahre
TTITLE10=Data Track
EXTD=YEAR: 2010
EXTT0=
EXTT1=
EXTT2=
EXTT3=
EXTT4=
EXTT5=
EXTT6=
EXTT7=
EXTT8=
EXTT9=
EXTT10=
PLAYORDER=
